<svg width="22" height="22" viewBox="0 0 22 22" xmlns="http://www.w3.org/2000/svg" role="img" aria-label="mp3-to-m4b menu bar template — open book with play">
  <!-- macOS template image: ONE black shape on transparent; identity via negative space.
       Open-book silhouette; page-line slots + a play triangle are cut THROUGH the shape
       (so the spine/play read as the menu-bar background, the way Apple template icons work).
       Solid fill, evenodd holes, no strokes/filters → crisp at 16–22 px, tints with the menu bar. -->
  <path fill="#000000" fill-rule="evenodd" d="
    M11 5.0
    C 9.6 4.0, 7.7 3.7, 5.8 4.0
    C 5.25 4.1, 4.9 4.5, 4.9 5.05
    L 4.9 15.4
    C 4.9 15.95, 5.25 16.35, 5.8 16.25
    C 7.45 16.0, 9.4 16.3, 11 17.3
    C 12.6 16.3, 14.55 16.0, 16.2 16.25
    C 16.75 16.35, 17.1 15.95, 17.1 15.4
    L 17.1 5.05
    C 17.1 4.5, 16.75 4.1, 16.2 4.0
    C 14.3 3.7, 12.4 4.0, 11 5.0
    Z
    M 6.6 6.5 L 9.7 6.85 L 9.7 7.75 L 6.6 7.4 Z
    M 15.4 6.5 L 12.3 6.85 L 12.3 7.75 L 15.4 7.4 Z
    M 9.1 8.7 L 9.1 13.1 L 13.0 10.9 Z
  "/>
</svg>
